<svg width="1280" height="832" viewBox="0 0 1280 832" fill="none" xmlns="http://www.w3.org/2000/svg">
<path d="M1122.33 682.273C1121.5 682.384 1120.88 682.253 1120.07 682.143" stroke="#F4F4F4" stroke-width="3" stroke-linecap="round"/>
<path d="M1074.35 781.436C1102.43 796.314 1143.78 807.008 1152.76 842.999C1154.39 851.603 1151.01 860.55 1147.07 868.238C1143.89 874.432 1141.08 880.507 1139.17 887.249C1133.19 908.354 1122.2 914.52 1101.84 921.561C1056.02 937.399 1003.58 943.634 955.712 950.439C886.513 960.275 816.716 965.918 747.782 977.623C610.079 1001.01 476.782 1046.29 336.542 1052.97C280.939 1055.62 223.825 1057.12 168.261 1053.33C118.369 1049.93 67.8588 1038.93 24.1709 1013.44C-10.0644 993.46 -38.706 969.573 -53.0007 931.443C-63.0519 904.632 -63.0628 871.353 -53.9621 844.191C-47.4839 824.856 -43.7227 806.583 -28.0771 791.983C-15.3669 780.122 12.327 782.899 28.1737 782.588C80.1527 781.567 126.274 804.601 176.879 809.08C236.586 814.365 292.394 806.079 350.738 795.008C387.852 787.966 420.112 769.528 455.997 758.929C537.755 734.78 619.186 715.907 704.383 710.518C786.252 705.339 861.95 716.171 940.791 737.753C986.834 750.357 1031.64 758.806 1074.35 781.436Z" fill="#F4F4F4" stroke="#F4F4F4" stroke-width="3" stroke-linecap="round"/>
<path d="M1039.48 802.297C1067.56 817.175 1108.9 827.869 1117.88 863.859C1119.52 872.463 1116.13 881.41 1112.19 889.099C1109.02 895.293 1106.2 901.368 1104.29 908.11C1098.31 929.214 1087.33 935.381 1066.96 942.421C1021.14 958.259 968.708 964.494 920.837 971.299C851.638 981.136 781.841 986.778 712.907 998.484C575.204 1021.87 441.907 1067.15 301.667 1073.83C246.064 1076.48 188.95 1077.98 133.386 1074.19C83.4944 1070.79 32.9838 1059.79 -10.7041 1034.3C-44.9394 1014.32 -73.581 990.434 -87.8757 952.303C-97.9269 925.492 -97.9378 892.214 -88.8371 865.052C-82.3589 845.717 -78.5977 827.444 -62.9521 812.844C-50.2419 800.983 -22.548 803.759 -6.70135 803.448C45.2777 802.428 91.3986 825.462 142.004 829.941C201.711 835.225 257.519 826.94 315.863 815.868C352.977 808.826 385.237 790.388 421.122 779.789C502.88 755.641 584.311 736.767 669.508 731.378C751.377 726.2 827.075 737.031 905.916 758.613C951.959 771.217 996.763 779.666 1039.48 802.297Z" fill="url(#paint0_linear_2602_638)" stroke="url(#paint1_linear_2602_638)" stroke-width="3" stroke-linecap="round"/>
<path d="M1331.14 349.628C1337.84 339.799 1348.71 323.275 1348.61 311.095C1346.92 302.167 1341.1 294.021 1339.41 285.093C1336.2 268.167 1343.26 246.763 1344.89 229.624C1346.67 211.019 1343.68 190.666 1342.38 171.997C1340.48 144.728 1335.26 112.808 1326.47 86.9108C1315.8 55.4876 1292.13 29.2812 1264.21 11.9231C1233.65 -7.08008 1198.1 -17.8114 1163.88 -28.1395L1163.25 -28.3279C1127.27 -39.1904 1091.07 -49.8453 1054.83 -59.81C980.935 -80.1251 902.013 -86.3532 826.04 -94.4224C767.95 -100.592 712.085 -99.6151 655.521 -83.173C623.987 -74.0066 594.264 -58.939 564.73 -44.8376C535.615 -30.9366 507.147 -16.2808 480.211 1.55684C449.512 21.8852 421.393 42.4696 430.11 81.8561C441.563 133.601 493.135 150.112 539.556 160.577C556.724 164.447 575.237 166.995 592.691 168.756C605.437 170.042 616.1 178.914 626.734 185.063C656.851 202.48 681.872 226.731 709.101 247.934C735.373 268.392 762.766 281.105 792.645 295.759C815.719 307.076 828.417 311.434 854.804 310.882C893.218 310.077 929.655 302.624 967.709 298.469C1006.77 294.205 1059.01 290.991 1094.72 310.416C1126.08 327.475 1146.02 358.84 1173.08 381.519C1206.6 409.61 1256.41 406.701 1292.25 382.741C1306.59 373.149 1321.23 364.182 1331.14 349.628Z" fill="#F4F4F4" stroke="#F4F4F4" stroke-width="3" stroke-linecap="round"/>
<path d="M312.659 64.122C306.562 55.9781 295.118 46.611 292.269 36.6375C285.414 35.7118 277.301 41.5989 270.478 39.3657C255.778 34.5545 243.033 36.6471 227.727 37.0267C173.403 38.3741 119.227 39.3073 65.1531 44.5616C43.5752 46.6583 19.3252 52.3525 1.41859 65.0969C-20.1085 80.418 -43.4875 108.371 -50.9789 133.727C-70.7463 200.634 10.0339 252.278 61.6413 272.843C97.0836 286.966 135.661 291.947 166.786 315.9C196.881 339.06 209.248 375.775 214.945 411.876C220.222 445.314 221.804 480.236 220.056 514.011C218.712 539.98 224.116 564.006 228.935 589.404C232.912 610.358 236.75 627.015 248.543 645.074C258.881 660.904 272.919 676.79 286.831 689.562C321.731 721.601 373.568 726.174 417.245 711.142L422.68 709.272C519.814 675.832 615.368 642.937 719.183 638.372C788.459 635.326 851.887 650.491 916.604 674.672C943.595 684.757 971.198 696.208 999.541 701.845C1034.87 708.87 1071.2 714.712 1107.02 718.532C1176.73 725.966 1246.89 721.937 1315.62 708.895C1339.66 704.334 1363.84 700.217 1387.77 695.104C1410 690.355 1439.23 685.679 1458.87 673.673C1467.58 668.351 1467.83 658.58 1469.57 649.536C1471.1 641.549 1471.83 633.489 1477.38 627.151C1479.71 624.485 1483.75 621.939 1485.44 618.788C1489.72 610.788 1482.88 592.782 1481.56 584.05C1478.13 561.303 1465.08 590.581 1460.88 580.438C1458.55 574.83 1458.38 568.255 1456.06 562.46C1452.69 554.036 1448.04 546.487 1442.95 538.92C1431.55 521.99 1423.64 503.133 1412.24 486.161C1403.88 473.72 1391.72 458.163 1392.14 442.24C1392.32 435.47 1391.82 448.66 1387.16 449.316C1376.16 450.865 1364.27 448.889 1353.13 449.542C1320.9 451.433 1289.01 448.557 1257.02 445.069C1210.78 440.028 1167.24 426.948 1122.24 416.378C1077.88 405.96 1031.8 406.33 986.565 407.855C936.251 409.552 884.665 411.487 834.57 404.941C802.959 400.81 766.666 398.043 738.487 381.57C718.859 370.096 704.978 351.465 696.703 330.309C688.323 308.887 668.475 290.059 647.578 281.144C616.936 268.069 586.358 261.56 553.602 256.166C531.488 252.525 510.62 244.348 489.78 236.521C467.476 228.145 448.744 211.845 429.277 198.359C410.344 185.242 392.337 167.72 377.16 150.365C362.534 133.641 347.836 117.074 336.083 98.0652C328.88 86.4163 320.866 75.0854 312.659 64.122Z" fill="#F4F4F4" stroke="#F4F4F4" stroke-width="3" stroke-linecap="round"/>
<path d="M78.0838 356.947C14.794 302.709 -67.4421 276.878 -136.203 230.051C-148.599 263.705 -177.544 293.4 -181.976 331.111C-187.482 377.964 -179.817 420.051 -169.898 465.95C-161.051 506.885 -143.335 539.982 -119.988 574.37C-107.191 593.219 -93.786 606.063 -75.6348 619.714C-71.6344 622.722 -60.586 632.633 -54.9873 632.17C-33.0837 630.355 -13.4417 625.6 7.90036 620.433L9.04656 620.155C45.1511 611.416 92.762 594.641 115.64 563.497C135.584 536.348 153.108 512.15 146.465 477.144C142.194 454.635 135.62 432.94 125.729 412.446C114.133 388.419 97.8745 373.907 78.0838 356.947Z" fill="#F4F4F4" stroke="#F4F4F4" stroke-width="3" stroke-linecap="round"/>
<path d="M1363.41 343.504C1370.1 333.675 1380.98 317.151 1380.88 304.971C1379.19 296.043 1373.37 287.897 1371.68 278.969C1368.47 262.043 1375.53 240.639 1377.16 223.5C1378.94 204.895 1375.95 184.542 1374.65 165.873C1372.75 138.604 1367.53 106.684 1358.74 80.7868C1348.07 49.3635 1324.4 23.1572 1296.48 5.79909C1265.92 -13.2041 1230.37 -23.9354 1196.15 -34.2636L1195.52 -34.4519C1159.54 -45.3144 1123.34 -55.9694 1087.1 -65.9341C1013.2 -86.2491 934.283 -92.4772 858.309 -100.546C800.219 -106.716 744.354 -105.739 687.791 -89.297C656.257 -80.1306 626.533 -65.063 596.999 -50.9616C567.885 -37.0607 539.417 -22.4048 512.48 -4.56718C481.782 15.7612 453.662 36.3456 462.379 75.7321C473.832 127.477 525.404 143.988 571.826 154.453C588.993 158.323 607.507 160.871 624.96 162.632C637.706 163.918 648.37 172.79 659.004 178.939C689.121 196.356 714.142 220.607 741.371 241.81C767.643 262.268 795.036 274.981 824.914 289.635C847.988 300.952 860.686 305.31 887.074 304.757C925.487 303.953 961.925 296.5 999.979 292.345C1039.04 288.081 1091.28 284.867 1126.99 304.292C1158.35 321.35 1178.29 352.716 1205.35 375.395C1238.87 403.486 1288.68 400.577 1324.52 376.617C1338.86 367.025 1353.5 358.057 1363.41 343.504Z" fill="url(#paint2_linear_2602_638)" stroke="url(#paint3_linear_2602_638)" stroke-width="3" stroke-linecap="round"/>
<path d="M277.784 84.9824C271.687 76.8384 260.243 67.4713 257.394 57.4979C250.539 56.5721 242.426 62.4593 235.603 60.226C220.903 55.4149 208.158 57.5074 192.852 57.887C138.528 59.2344 84.3519 60.1676 30.2781 65.4219C8.70016 67.5187 -15.5498 73.2128 -33.4564 85.9573C-54.9835 101.278 -78.3625 129.231 -85.8539 154.587C-105.621 221.494 -24.8411 273.138 26.7663 293.703C62.2086 307.827 100.786 312.807 131.911 336.76C162.006 359.92 174.373 396.636 180.07 432.736C185.347 466.175 186.929 501.096 185.181 534.872C183.837 560.84 189.241 584.866 194.06 610.264C198.037 631.219 201.875 647.875 213.668 665.934C224.006 681.765 238.044 697.651 251.956 710.422C286.856 742.461 338.693 747.034 382.37 732.003L387.805 730.132C484.939 696.693 580.493 663.798 684.308 659.233C753.584 656.187 817.012 671.352 881.729 695.532C908.72 705.617 936.323 717.069 964.666 722.705C999.994 729.73 1036.32 735.572 1072.14 739.392C1141.86 746.826 1212.02 742.797 1280.75 729.756C1304.79 725.194 1328.97 721.078 1352.89 715.964C1375.12 711.215 1404.36 706.54 1424 694.534C1432.7 689.211 1432.95 679.44 1434.69 670.396C1436.22 662.409 1436.96 654.35 1442.5 648.011C1444.84 645.345 1448.87 642.8 1450.56 639.648C1454.85 631.649 1448 613.642 1446.68 604.911C1443.25 582.164 1430.2 611.441 1426 601.299C1423.68 595.69 1423.5 589.115 1421.18 583.32C1417.81 574.896 1413.17 567.348 1408.07 559.78C1396.68 542.851 1388.77 523.993 1377.36 507.021C1369 494.58 1356.85 479.023 1357.27 463.1C1357.45 456.33 1356.94 469.52 1352.28 470.177C1341.29 471.725 1329.39 469.749 1318.26 470.402C1286.03 472.293 1254.14 469.417 1222.14 465.929C1175.9 460.889 1132.37 447.809 1087.36 437.238C1043.01 426.82 996.922 427.19 951.69 428.715C901.376 430.412 849.79 432.347 799.695 425.801C768.084 421.671 731.791 418.903 703.612 402.43C683.984 390.956 670.103 372.325 661.828 351.169C653.448 329.747 633.6 310.92 612.703 302.004C582.061 288.93 551.483 282.421 518.727 277.027C496.613 273.385 475.745 265.209 454.905 257.382C432.601 249.005 413.869 232.706 394.402 219.219C375.469 206.103 357.462 188.58 342.285 171.225C327.659 154.501 312.961 137.934 301.208 118.926C294.005 107.277 285.991 95.9458 277.784 84.9824Z" fill="url(#paint4_linear_2602_638)" stroke="url(#paint5_linear_2602_638)" stroke-width="3" stroke-linecap="round"/>
<path d="M43.2088 377.807C-20.081 323.569 -102.317 297.739 -171.078 250.911C-183.474 284.566 -212.419 314.261 -216.851 351.972C-222.357 398.824 -214.692 440.911 -204.773 486.81C-195.926 527.745 -178.21 560.843 -154.863 595.23C-142.066 614.079 -128.661 626.923 -110.51 640.574C-106.509 643.583 -95.461 653.494 -89.8623 653.03C-67.9587 651.216 -48.3167 646.46 -26.9746 641.293L-25.8284 641.016C10.2761 632.277 57.887 615.502 80.7654 584.358C100.709 557.208 118.233 533.01 111.59 498.004C107.319 475.496 100.745 453.8 90.8538 433.306C79.258 409.279 62.9995 394.767 43.2088 377.807Z" fill="url(#paint6_linear_2602_638)" stroke="url(#paint7_linear_2602_638)" stroke-width="3" stroke-linecap="round"/>
<defs>
<linearGradient id="paint0_linear_2602_638" x1="58.3569" y1="1137.98" x2="0.290706" y2="784.177" gradientUnits="userSpaceOnUse">
<stop stop-color="#80465D"/>
<stop offset="1" stop-color="#59253A"/>
</linearGradient>
<linearGradient id="paint1_linear_2602_638" x1="58.3569" y1="1137.98" x2="0.290706" y2="784.177" gradientUnits="userSpaceOnUse">
<stop stop-color="#80465D"/>
<stop offset="1" stop-color="#59253A"/>
</linearGradient>
<linearGradient id="paint2_linear_2602_638" x1="628.872" y1="517.746" x2="550.124" y2="-83.8276" gradientUnits="userSpaceOnUse">
<stop stop-color="#80465D"/>
<stop offset="1" stop-color="#59253A"/>
</linearGradient>
<linearGradient id="paint3_linear_2602_638" x1="628.872" y1="517.746" x2="550.124" y2="-83.8276" gradientUnits="userSpaceOnUse">
<stop stop-color="#80465D"/>
<stop offset="1" stop-color="#59253A"/>
</linearGradient>
<linearGradient id="paint4_linear_2602_638" x1="188.444" y1="937.208" x2="65.9052" y2="28.7061" gradientUnits="userSpaceOnUse">
<stop stop-color="#80465D"/>
<stop offset="1" stop-color="#59253A"/>
</linearGradient>
<linearGradient id="paint5_linear_2602_638" x1="188.444" y1="937.208" x2="65.9052" y2="28.7061" gradientUnits="userSpaceOnUse">
<stop stop-color="#80465D"/>
<stop offset="1" stop-color="#59253A"/>
</linearGradient>
<linearGradient id="paint6_linear_2602_638" x1="-142.547" y1="664.441" x2="-173.473" y2="242.266" gradientUnits="userSpaceOnUse">
<stop stop-color="#80465D"/>
<stop offset="1" stop-color="#59253A"/>
</linearGradient>
<linearGradient id="paint7_linear_2602_638" x1="-142.547" y1="664.441" x2="-173.473" y2="242.266" gradientUnits="userSpaceOnUse">
<stop stop-color="#80465D"/>
<stop offset="1" stop-color="#59253A"/>
</linearGradient>
</defs>
</svg>
