<svg width="233" height="36" viewBox="0 0 233 36" fill="none" xmlns="http://www.w3.org/2000/svg">
<path d="M0 2C0 0.895431 0.895431 0 2 0H214.713V18V36H1.99999C0.895424 36 0 35.1046 0 34V2Z" fill="#80465D"/>
<path d="M222.75 13.7382C222.24 13.5857 221.812 13.2363 221.56 12.7673L214.713 0V18V36L221.56 23.2327C221.812 22.7637 222.24 22.4143 222.75 22.2618L230.593 19.9161C232.495 19.3471 232.495 16.6529 230.593 16.0839L222.75 13.7382Z" fill="#80465D"/>
<path d="M222.75 13.7382C222.24 13.5857 221.812 13.2363 221.56 12.7673L214.713 0V18V36L221.56 23.2327C221.812 22.7637 222.24 22.4143 222.75 22.2618L230.593 19.9161C232.495 19.3471 232.495 16.6529 230.593 16.0839L222.75 13.7382Z" fill="#80465D"/>
</svg>
