<svg width="900" height="900" viewBox="0 0 900 900" fill="none" xmlns="http://www.w3.org/2000/svg">
<rect width="900" height="900" rx="200" fill="#FFC0D9"/>
<ellipse cx="4.45602" cy="4.4703" rx="4.45602" ry="4.4703" transform="matrix(0.64545 0.763802 -0.774722 0.632302 415.187 316.805)" fill="#80465D"/>
<ellipse cx="4.45602" cy="4.4703" rx="4.45602" ry="4.4703" transform="matrix(0.64545 0.763802 -0.774722 0.632302 429.156 333.336)" fill="#80465D"/>
<ellipse cx="4.45602" cy="4.4703" rx="4.45602" ry="4.4703" transform="matrix(0.64545 0.763802 -0.774722 0.632302 406.079 345.598)" fill="#80465D"/>
<ellipse cx="4.45602" cy="4.4703" rx="4.45602" ry="4.4703" transform="matrix(0.64545 0.763802 -0.774722 0.632302 390.298 328.902)" fill="#80465D"/>
<ellipse cx="4.45602" cy="4.4703" rx="4.45602" ry="4.4703" transform="matrix(0.64545 0.763802 -0.774722 0.632302 531.193 356.784)" fill="#80465D"/>
<ellipse cx="4.45602" cy="4.4703" rx="4.45602" ry="4.4703" transform="matrix(0.64545 0.763802 -0.774722 0.632302 545.163 373.315)" fill="#80465D"/>
<ellipse cx="4.45602" cy="4.4703" rx="4.45602" ry="4.4703" transform="matrix(0.64545 0.763802 -0.774722 0.632302 522.879 386.983)" fill="#80465D"/>
<ellipse cx="4.45602" cy="4.4703" rx="4.45602" ry="4.4703" transform="matrix(0.64545 0.763802 -0.774722 0.632302 506.305 368.881)" fill="#80465D"/>
<path d="M382.998 377.728C421.37 398.33 462.401 356.345 468.61 355.503C474.819 354.661 471.613 420.582 519.296 421.272" stroke="#80465D" stroke-width="15"/>
<path d="M428.288 379.519C395.798 441.025 462.687 469.155 483.792 399.517" stroke="#80465D" stroke-width="15"/>
<path d="M454.292 395.514L445.295 416.016" stroke="#80465D" stroke-width="6"/>
<ellipse cx="471.886" cy="350.318" rx="24.5" ry="14" transform="rotate(17.7511 471.886 350.318)" fill="#80465D"/>
<path fill-rule="evenodd" clip-rule="evenodd" d="M613.471 246.526C624.334 231.945 631.971 225.026 647.971 225.027C663.971 225.027 783.971 344.026 779.471 370.026C774.971 396.026 733.471 399.026 709.471 414.526C685.471 430.026 662 441.501 640 436.5C618 431.499 633.471 359.526 657.971 319.526C682.471 279.526 645.971 253.526 633.471 276.026L646.471 310.026C611.551 376.733 602.393 408.715 624.971 445.526C577.5 514.5 517.471 538.026 428.471 528.026C428.471 528.026 385.471 690.026 369.471 731.026C353.471 772.026 268.971 750.026 286.971 700.526C304.971 651.026 380.971 511.026 380.971 511.026C318.87 465.315 297.354 431.652 288.971 353.526C339.599 353.547 343.198 304.785 349.471 217.526C354.854 211.746 361.006 207.371 373.471 199.026C361.014 176.744 338.152 178.774 333.471 231.026C328.79 283.277 324.971 304.526 324.971 304.526C318.96 328.101 313.5 333.5 301 337C288.5 340.5 261.104 310.916 242.971 279.026C242.971 279.026 187.471 228.026 212.471 203.526C237.471 179.026 361.412 142.163 381.971 147.526C402.53 152.889 405.205 165.389 407.971 183.026C497.556 158.636 559.748 177.164 613.471 246.526ZM497.471 222.026C466.744 218.754 449.421 218.94 417.971 231.026C389.5 241.967 369.471 262.026 359.471 276.026C349.471 290.026 340.43 316.602 338.971 330.026C337.376 352.001 337.757 363.773 342.471 383.026C348.769 404.499 352.54 412.7 359.471 424.026C374.907 444.07 383.423 451.947 398.471 462.526C418.954 475.948 432.432 481.252 462.471 484.026C484.391 483.713 496.408 483.407 517.471 476.5C537.782 467.868 549.168 462.488 568.971 441.5C581.933 425.066 589.791 416.706 597.5 386.5C602.168 367.297 603.66 352.943 596.471 319.526C590.439 298.166 584.31 286.121 568.971 264.526C548.699 244.751 538.633 233.124 497.471 222.026Z" fill="#80465D"/>
</svg>
