<svg width="900" height="951" viewBox="0 0 900 951" fill="none" xmlns="http://www.w3.org/2000/svg">
<ellipse cx="6.99173" cy="7.01414" rx="6.99173" ry="7.01414" transform="matrix(0.64545 0.763802 -0.774722 0.632302 328.225 266.432)" fill="#80465D"/>
<ellipse cx="6.99173" cy="7.01414" rx="6.99173" ry="7.01414" transform="matrix(0.64545 0.763802 -0.774722 0.632302 350.144 292.371)" fill="#80465D"/>
<ellipse cx="6.99173" cy="7.01414" rx="6.99173" ry="7.01414" transform="matrix(0.64545 0.763802 -0.774722 0.632302 313.935 311.611)" fill="#80465D"/>
<ellipse cx="6.99173" cy="7.01414" rx="6.99173" ry="7.01414" transform="matrix(0.64545 0.763802 -0.774722 0.632302 289.173 285.414)" fill="#80465D"/>
<ellipse cx="6.99173" cy="7.01414" rx="6.99173" ry="7.01414" transform="matrix(0.64545 0.763802 -0.774722 0.632302 510.246 329.162)" fill="#80465D"/>
<ellipse cx="6.99173" cy="7.01414" rx="6.99173" ry="7.01414" transform="matrix(0.64545 0.763802 -0.774722 0.632302 532.165 355.1)" fill="#80465D"/>
<ellipse cx="6.99174" cy="7.01414" rx="6.99174" ry="7.01414" transform="matrix(0.64545 0.763802 -0.774722 0.632302 497.201 376.546)" fill="#80465D"/>
<ellipse cx="6.99173" cy="7.01414" rx="6.99173" ry="7.01414" transform="matrix(0.64545 0.763802 -0.774722 0.632302 471.194 348.143)" fill="#80465D"/>
<path d="M277.719 362.024C337.927 394.35 402.307 328.473 412.049 327.152C421.791 325.832 416.761 429.265 491.578 430.347" stroke="#80465D" stroke-width="15"/>
<path d="M348.781 364.835C297.804 461.34 402.756 505.479 435.87 396.212" stroke="#80465D" stroke-width="15"/>
<path d="M389.582 389.932L375.467 422.1" stroke="#80465D" stroke-width="6"/>
<ellipse cx="417.19" cy="319.016" rx="38.4418" ry="21.9667" transform="rotate(17.7511 417.19 319.016)" fill="#80465D"/>
<path fill-rule="evenodd" clip-rule="evenodd" d="M639.343 156.161C656.388 133.283 668.371 122.426 693.476 122.428C718.581 122.429 906.867 309.144 899.806 349.939C892.746 390.735 827.63 395.442 789.973 419.762C752.315 444.082 715.488 462.087 680.969 454.241C646.45 446.394 670.724 333.464 709.166 270.702C747.608 207.94 690.338 167.145 670.725 202.448L691.122 255.796C636.33 360.463 621.962 410.644 657.388 468.403C582.903 576.627 488.715 613.54 349.069 597.85C349.069 597.85 281.6 852.036 256.495 916.367C231.39 980.698 98.8048 946.179 127.048 868.511C155.291 790.843 274.539 571.176 274.539 571.176C177.098 499.453 143.339 446.634 130.186 324.05C209.625 324.083 215.271 247.573 225.114 110.659C233.56 101.59 243.213 94.726 262.771 81.6313C243.225 46.6695 207.354 49.8554 200.009 131.841C192.664 213.827 186.672 247.166 186.672 247.166C177.24 284.158 168.673 292.628 149.06 298.12C129.447 303.612 86.4618 257.193 58.0094 207.155C58.0094 207.155 -29.073 127.134 10.1533 88.6919C49.3796 50.2501 243.85 -7.58987 276.108 0.824967C308.366 9.2398 312.563 28.8526 316.903 56.5264C457.467 18.2569 555.049 47.3283 639.343 156.161ZM457.333 117.719C409.121 112.586 381.941 112.878 332.594 131.841C287.921 149.008 256.495 180.482 240.804 202.448C225.114 224.415 210.927 266.114 208.639 287.177C206.136 321.658 206.734 340.128 214.13 370.337C224.012 404.029 229.929 416.898 240.804 434.668C265.024 466.118 278.386 478.478 301.997 495.076C334.136 516.136 355.284 524.459 402.417 528.811C436.81 528.32 455.666 527.84 488.714 517.003C520.584 503.459 538.449 495.017 569.521 462.086C589.858 436.3 602.188 423.183 614.284 375.788C621.608 345.658 623.95 323.136 612.67 270.702C603.205 237.188 593.589 218.288 569.521 184.404C537.712 153.377 521.919 135.133 457.333 117.719Z" fill="#80465D"/>
</svg>
