<svg width="51" height="54" viewBox="0 0 51 54" fill="none" xmlns="http://www.w3.org/2000/svg">
<ellipse cx="0.396198" cy="0.397468" rx="0.396198" ry="0.397468" transform="matrix(0.64545 0.763802 -0.774722 0.632302 19.3927 14.3612)" fill="#FFC0D9"/>
<ellipse cx="0.396198" cy="0.397468" rx="0.396198" ry="0.397468" transform="matrix(0.64545 0.763802 -0.774722 0.632302 20.6349 15.8311)" fill="#FFC0D9"/>
<ellipse cx="0.396198" cy="0.397468" rx="0.396198" ry="0.397468" transform="matrix(0.64545 0.763802 -0.774722 0.632302 18.583 16.9213)" fill="#FFC0D9"/>
<ellipse cx="0.396198" cy="0.397468" rx="0.396198" ry="0.397468" transform="matrix(0.64545 0.763802 -0.774722 0.632302 17.1798 15.4368)" fill="#FFC0D9"/>
<ellipse cx="0.396198" cy="0.397468" rx="0.396198" ry="0.397468" transform="matrix(0.64545 0.763802 -0.774722 0.632302 29.7072 17.9159)" fill="#FFC0D9"/>
<ellipse cx="0.396198" cy="0.397468" rx="0.396198" ry="0.397468" transform="matrix(0.64545 0.763802 -0.774722 0.632302 30.9493 19.3857)" fill="#FFC0D9"/>
<ellipse cx="0.396198" cy="0.397468" rx="0.396198" ry="0.397468" transform="matrix(0.64545 0.763802 -0.774722 0.632302 28.968 20.601)" fill="#FFC0D9"/>
<ellipse cx="0.396198" cy="0.397468" rx="0.396198" ry="0.397468" transform="matrix(0.64545 0.763802 -0.774722 0.632302 27.4943 18.9915)" fill="#FFC0D9"/>
<path d="M16.5307 19.7781C19.9425 21.6099 23.5907 17.8768 24.1428 17.802C24.6948 17.7271 24.4098 23.5884 28.6494 23.6497" stroke="#FFC0D9" stroke-width="2"/>
<path d="M20.5576 19.9374C17.6689 25.406 23.6162 27.9072 25.4926 21.7154" stroke="#FFC0D9" stroke-width="2"/>
<path d="M22.8697 21.3596L22.0698 23.1825" stroke="#FFC0D9"/>
<ellipse cx="24.434" cy="17.341" rx="2.17837" ry="1.24478" transform="rotate(17.7511 24.434 17.341)" fill="#FFC0D9"/>
<path fill-rule="evenodd" clip-rule="evenodd" d="M36.2295 8.84914C37.1953 7.5527 37.8743 6.93749 39.297 6.93757C40.7196 6.93765 51.3891 17.5182 50.989 19.8299C50.5889 22.1416 46.899 22.4084 44.7651 23.7865C42.6312 25.1647 40.7161 26.1146 38.76 25.67C36.8039 25.2254 37.545 19.8482 39.7233 16.2917C41.9017 12.7351 39.1191 9.47153 38.0077 11.4721L39.1636 14.4951C36.0587 20.4263 35.2445 23.2698 37.252 26.5428C33.0312 32.6755 27.6938 34.7673 19.7806 33.8782C19.7806 33.8782 15.9573 48.282 14.5347 51.9275C13.1121 55.5729 5.59894 53.6168 7.19937 49.2156C8.79981 44.8144 15.5572 32.3666 15.5572 32.3666C10.0356 28.3023 8.12256 25.3093 7.3772 18.3628C11.8787 18.3647 12.1987 14.0291 12.7564 6.27066C13.2351 5.75679 13.7821 5.36781 14.8903 4.62577C13.7827 2.64461 11.7501 2.82514 11.3338 7.47099C10.9176 12.1168 10.5781 14.0061 10.5781 14.0061C10.0436 16.1023 9.55815 16.5823 8.44673 16.8935C7.33532 17.2047 4.8995 14.5742 3.2872 11.7388C3.2872 11.7388 -1.64747 7.20425 0.575355 5.02588C2.79818 2.84751 13.8181 -0.430093 15.6461 0.0467481C17.4741 0.523589 17.7119 1.63498 17.9578 3.20316C25.9231 1.03456 31.4528 2.68193 36.2295 8.84914ZM25.9156 6.67075C23.1835 6.37988 21.6433 6.3964 18.847 7.47099C16.3155 8.44379 14.5347 10.2273 13.6456 11.4721C12.7564 12.7168 11.9526 15.0798 11.8228 16.2734C11.681 18.2273 11.7149 19.2739 12.134 20.9857C12.694 22.895 13.0293 23.6242 13.6456 24.6312C15.018 26.4134 15.7752 27.1137 17.1132 28.0543C18.9344 29.2477 20.1327 29.7194 22.8036 29.966C24.7526 29.9381 25.8211 29.911 27.6938 29.2968C29.4997 28.5293 30.5121 28.051 32.2728 26.1849C33.4253 24.7236 34.124 23.9803 34.8094 21.2947C35.2245 19.5873 35.3572 18.311 34.7179 15.3398C34.1816 13.4406 33.6367 12.3697 32.2728 10.4496C30.4704 8.69134 29.5754 7.65754 25.9156 6.67075Z" fill="#FFC0D9"/>
</svg>
